<?xml version="1.0" encoding="UTF-8"?>
<svg xmlns="http://www.w3.org/2000/svg" xmlns:xlink="http://www.w3.org/1999/xlink" viewBox="0 0 75 75" width="75px" height="75px">
<g id="surface998653">
<path style=" stroke:none;fill-rule:nonzero;fill:rgb(80.000001%,80.000001%,80.000001%);fill-opacity:1;" d="M 21.75 12.75 C 16.789062 12.75 12.75 16.789062 12.75 21.75 L 12.75 53.25 C 12.75 58.210938 16.789062 62.25 21.75 62.25 L 53.25 62.25 C 58.210938 62.25 62.25 58.210938 62.25 53.25 L 62.25 21.75 C 62.25 16.789062 58.210938 12.75 53.25 12.75 Z M 21.75 14.25 L 25.5 14.25 L 25.5 19.875 C 25.5 20.011719 25.570312 20.136719 25.6875 20.203125 C 25.804688 20.273438 25.945312 20.273438 26.0625 20.203125 C 26.179688 20.136719 26.25 20.011719 26.25 19.875 L 26.25 14.25 L 53.25 14.25 C 57.402344 14.25 60.75 17.597656 60.75 21.75 L 60.75 28.5 L 52.875 28.5 C 52.738281 28.5 52.613281 28.570312 52.546875 28.6875 C 52.476562 28.804688 52.476562 28.945312 52.546875 29.0625 C 52.613281 29.179688 52.738281 29.25 52.875 29.25 L 60.75 29.25 L 60.75 53.25 C 60.75 57.402344 57.402344 60.75 53.25 60.75 L 21.75 60.75 C 17.597656 60.75 14.25 57.402344 14.25 53.25 L 14.25 29.25 L 16.539062 29.25 C 16.714844 30.101562 17.472656 30.75 18.375 30.75 L 24.375 30.75 C 25.277344 30.75 26.035156 30.101562 26.210938 29.25 L 28.789062 29.25 C 26.753906 31.394531 25.5 34.285156 25.5 37.472656 C 25.5 42.097656 28.125 46.117188 31.96875 48.109375 C 33.617188 48.964844 35.488281 49.445312 37.472656 49.445312 C 44.082031 49.445312 49.445312 44.082031 49.445312 37.472656 C 49.445312 34.285156 48.191406 31.394531 46.15625 29.25 L 50.625 29.25 C 50.761719 29.25 50.886719 29.179688 50.953125 29.0625 C 51.023438 28.945312 51.023438 28.804688 50.953125 28.6875 C 50.886719 28.570312 50.761719 28.5 50.625 28.5 L 45.378906 28.5 C 43.269531 26.640625 40.503906 25.5 37.472656 25.5 C 34.441406 25.5 31.679688 26.640625 29.570312 28.5 L 26.25 28.5 L 26.25 25.875 C 26.25 25.773438 26.210938 25.675781 26.140625 25.605469 C 26.070312 25.53125 25.96875 25.492188 25.867188 25.492188 C 25.769531 25.496094 25.675781 25.535156 25.605469 25.609375 C 25.535156 25.679688 25.5 25.777344 25.5 25.875 L 25.5 27.386719 C 25.183594 27.148438 24.796875 27 24.375 27 L 24 27 L 24 16.125 C 24 16.023438 23.960938 15.925781 23.890625 15.855469 C 23.820312 15.78125 23.71875 15.742188 23.617188 15.742188 C 23.519531 15.746094 23.425781 15.785156 23.355469 15.859375 C 23.285156 15.929688 23.25 16.027344 23.25 16.125 L 23.25 27 L 21.75 27 L 21.75 21.375 C 21.75 21.273438 21.710938 21.175781 21.640625 21.105469 C 21.570312 21.03125 21.46875 20.992188 21.367188 20.992188 C 21.269531 20.996094 21.175781 21.035156 21.105469 21.109375 C 21.035156 21.179688 21 21.277344 21 21.375 L 21 27 L 19.5 27 L 19.5 25.875 C 19.5 25.773438 19.460938 25.675781 19.390625 25.605469 C 19.320312 25.53125 19.21875 25.492188 19.117188 25.492188 C 19.019531 25.496094 18.925781 25.535156 18.855469 25.609375 C 18.785156 25.679688 18.75 25.777344 18.75 25.875 L 18.75 27 L 18.375 27 C 17.472656 27 16.714844 27.648438 16.539062 28.5 L 14.25 28.5 L 14.25 21.75 C 14.25 19.648438 15.113281 17.75 16.5 16.390625 L 16.5 25.125 C 16.5 25.261719 16.570312 25.386719 16.6875 25.453125 C 16.804688 25.523438 16.945312 25.523438 17.0625 25.453125 C 17.179688 25.386719 17.25 25.261719 17.25 25.125 L 17.25 15.753906 C 17.710938 15.40625 18.214844 15.109375 18.75 14.875 L 18.75 23.625 C 18.75 23.761719 18.820312 23.886719 18.9375 23.953125 C 19.054688 24.023438 19.195312 24.023438 19.3125 23.953125 C 19.429688 23.886719 19.5 23.761719 19.5 23.625 L 19.5 14.59375 C 19.980469 14.441406 20.484375 14.335938 21 14.285156 L 21 19.125 C 21 19.261719 21.070312 19.386719 21.1875 19.453125 C 21.304688 19.523438 21.445312 19.523438 21.5625 19.453125 C 21.679688 19.386719 21.75 19.261719 21.75 19.125 Z M 49.875 18 C 49.667969 18 49.5 18.167969 49.5 18.375 L 49.5 24.375 C 49.5 24.582031 49.667969 24.75 49.875 24.75 L 55.875 24.75 C 56.082031 24.75 56.25 24.582031 56.25 24.375 L 56.25 18.375 C 56.25 18.167969 56.082031 18 55.875 18 Z M 50.25 18.75 L 55.5 18.75 L 55.5 24 L 50.25 24 Z M 25.867188 21.742188 C 25.769531 21.746094 25.675781 21.785156 25.605469 21.859375 C 25.535156 21.929688 25.5 22.027344 25.5 22.125 L 25.5 23.625 C 25.5 23.761719 25.570312 23.886719 25.6875 23.953125 C 25.804688 24.023438 25.945312 24.023438 26.0625 23.953125 C 26.179688 23.886719 26.25 23.761719 26.25 23.625 L 26.25 22.125 C 26.25 22.023438 26.210938 21.925781 26.140625 21.855469 C 26.070312 21.78125 25.96875 21.742188 25.867188 21.742188 Z M 37.472656 26.25 C 43.675781 26.25 48.695312 31.269531 48.695312 37.472656 C 48.695312 43.675781 43.675781 48.695312 37.472656 48.695312 C 35.613281 48.695312 33.859375 48.242188 32.3125 47.441406 C 28.710938 45.574219 26.25 41.816406 26.25 37.472656 C 26.25 31.269531 31.269531 26.25 37.472656 26.25 Z M 18.375 27.75 L 19.066406 27.75 C 19.105469 27.757812 19.144531 27.757812 19.1875 27.75 L 21.316406 27.75 C 21.355469 27.757812 21.394531 27.757812 21.4375 27.75 L 23.566406 27.75 C 23.605469 27.757812 23.644531 27.757812 23.6875 27.75 L 24.375 27.75 C 24.988281 27.75 25.476562 28.230469 25.496094 28.839844 C 25.496094 28.863281 25.496094 28.886719 25.496094 28.910156 C 25.476562 29.519531 24.988281 30 24.375 30 L 18.375 30 C 17.761719 30 17.273438 29.519531 17.253906 28.910156 C 17.253906 28.886719 17.253906 28.863281 17.253906 28.839844 C 17.273438 28.230469 17.761719 27.75 18.375 27.75 Z M 37.5 29.25 C 32.949219 29.25 29.25 32.949219 29.25 37.5 C 29.25 42.050781 32.949219 45.75 37.5 45.75 C 37.636719 45.75 37.761719 45.679688 37.828125 45.5625 C 37.898438 45.445312 37.898438 45.304688 37.828125 45.1875 C 37.761719 45.070312 37.636719 45 37.5 45 C 33.351562 45 30 41.648438 30 37.5 C 30 36.269531 30.300781 35.109375 30.828125 34.085938 C 30.933594 35.097656 31.542969 35.96875 32.410156 36.417969 C 32.820312 36.628906 33.285156 36.75 33.777344 36.75 C 35.414062 36.75 36.75 35.414062 36.75 33.777344 C 36.75 32.238281 35.566406 30.984375 34.070312 30.832031 C 35.097656 30.304688 36.261719 30 37.5 30 C 40.765625 30 43.539062 32.082031 44.570312 34.992188 C 44.613281 35.121094 44.722656 35.21875 44.855469 35.246094 C 44.992188 35.269531 45.128906 35.222656 45.214844 35.117188 C 45.304688 35.011719 45.328125 34.867188 45.277344 34.738281 C 44.140625 31.539062 41.085938 29.25 37.5 29.25 Z M 33.777344 31.554688 C 35.007812 31.554688 36 32.542969 36 33.777344 C 36 35.007812 35.007812 36 33.777344 36 C 33.40625 36 33.0625 35.910156 32.753906 35.753906 C 32.042969 35.382812 31.554688 34.640625 31.554688 33.777344 C 31.554688 32.542969 32.542969 31.554688 33.777344 31.554688 Z M 45.273438 35.996094 C 45.167969 36 45.066406 36.050781 45 36.136719 C 44.933594 36.21875 44.90625 36.324219 44.921875 36.429688 C 44.957031 36.664062 44.980469 36.902344 44.992188 37.144531 C 45 37.351562 45.175781 37.511719 45.382812 37.5 C 45.589844 37.492188 45.75 37.316406 45.742188 37.109375 C 45.730469 36.84375 45.703125 36.582031 45.667969 36.324219 C 45.640625 36.125 45.46875 35.984375 45.273438 35.996094 Z M 45.273438 35.996094 "/>
</g>
</svg>
